<mxfile host="app.diagrams.net" modified="2023-10-25T19:28:44.362Z" agent="Mozilla/5.0 (Windows NT 10.0; Win64; x64) AppleWebKit/537.36 (KHTML, like Gecko) Chrome/118.0.0.0 Safari/537.36" etag="XNNlcpF8DQYVg245-ZRK" version="22.0.8" type="device">
  <diagram name="Page-1" id="2YBvvXClWsGukQMizWep">
    <mxGraphModel dx="1892" dy="1066" grid="1" gridSize="10" guides="1" tooltips="1" connect="1" arrows="1" fold="1" page="1" pageScale="1" pageWidth="850" pageHeight="1100" math="0" shadow="0">
      <root>
        <mxCell id="0" />
        <mxCell id="1" parent="0" />
        <mxCell id="aM9ryv3xv72pqoxQDRHE-1" value="UjNyugtaView" style="shape=umlLifeline;perimeter=lifelinePerimeter;whiteSpace=wrap;html=1;container=0;dropTarget=0;collapsible=0;recursiveResize=0;outlineConnect=0;portConstraint=eastwest;newEdgeStyle={&quot;edgeStyle&quot;:&quot;elbowEdgeStyle&quot;,&quot;elbow&quot;:&quot;vertical&quot;,&quot;curved&quot;:0,&quot;rounded&quot;:0};" parent="1" vertex="1">
          <mxGeometry x="30" y="60" width="100" height="650" as="geometry" />
        </mxCell>
        <mxCell id="aM9ryv3xv72pqoxQDRHE-2" value="" style="html=1;points=[];perimeter=orthogonalPerimeter;outlineConnect=0;targetShapes=umlLifeline;portConstraint=eastwest;newEdgeStyle={&quot;edgeStyle&quot;:&quot;elbowEdgeStyle&quot;,&quot;elbow&quot;:&quot;vertical&quot;,&quot;curved&quot;:0,&quot;rounded&quot;:0};" parent="aM9ryv3xv72pqoxQDRHE-1" vertex="1">
          <mxGeometry x="45" y="70" width="10" height="550" as="geometry" />
        </mxCell>
        <mxCell id="aM9ryv3xv72pqoxQDRHE-5" value="KepService" style="shape=umlLifeline;perimeter=lifelinePerimeter;whiteSpace=wrap;html=1;container=0;dropTarget=0;collapsible=0;recursiveResize=0;outlineConnect=0;portConstraint=eastwest;newEdgeStyle={&quot;edgeStyle&quot;:&quot;elbowEdgeStyle&quot;,&quot;elbow&quot;:&quot;vertical&quot;,&quot;curved&quot;:0,&quot;rounded&quot;:0};" parent="1" vertex="1">
          <mxGeometry x="220" y="60" width="100" height="650" as="geometry" />
        </mxCell>
        <mxCell id="aM9ryv3xv72pqoxQDRHE-6" value="" style="html=1;points=[];perimeter=orthogonalPerimeter;outlineConnect=0;targetShapes=umlLifeline;portConstraint=eastwest;newEdgeStyle={&quot;edgeStyle&quot;:&quot;elbowEdgeStyle&quot;,&quot;elbow&quot;:&quot;vertical&quot;,&quot;curved&quot;:0,&quot;rounded&quot;:0};" parent="aM9ryv3xv72pqoxQDRHE-5" vertex="1">
          <mxGeometry x="45" y="190" width="10" height="110" as="geometry" />
        </mxCell>
        <mxCell id="aM9ryv3xv72pqoxQDRHE-8" value="Hibaüzenet" style="html=1;verticalAlign=bottom;endArrow=open;dashed=1;endSize=8;edgeStyle=elbowEdgeStyle;elbow=vertical;curved=0;rounded=0;" parent="1" source="aM9ryv3xv72pqoxQDRHE-6" target="aM9ryv3xv72pqoxQDRHE-2" edge="1">
          <mxGeometry relative="1" as="geometry">
            <mxPoint x="195" y="205" as="targetPoint" />
            <Array as="points">
              <mxPoint x="190" y="280" />
            </Array>
            <mxPoint as="offset" />
          </mxGeometry>
        </mxCell>
        <mxCell id="LTguTdRPaYYCilJlMKBC-5" style="edgeStyle=orthogonalEdgeStyle;rounded=0;orthogonalLoop=1;jettySize=auto;html=1;endArrow=none;endFill=0;dashed=1;" edge="1" parent="1" source="LTguTdRPaYYCilJlMKBC-1">
          <mxGeometry relative="1" as="geometry">
            <mxPoint x="-75" y="710" as="targetPoint" />
          </mxGeometry>
        </mxCell>
        <mxCell id="LTguTdRPaYYCilJlMKBC-1" value="Felhasználó" style="shape=umlActor;verticalLabelPosition=bottom;verticalAlign=top;html=1;" vertex="1" parent="1">
          <mxGeometry x="-90" y="30" width="30" height="60" as="geometry" />
        </mxCell>
        <mxCell id="LTguTdRPaYYCilJlMKBC-7" style="edgeStyle=elbowEdgeStyle;rounded=0;orthogonalLoop=1;jettySize=auto;html=1;elbow=vertical;curved=0;" edge="1" parent="1" target="aM9ryv3xv72pqoxQDRHE-2">
          <mxGeometry relative="1" as="geometry">
            <mxPoint x="-70" y="130" as="sourcePoint" />
            <mxPoint x="79.5" y="130" as="targetPoint" />
          </mxGeometry>
        </mxCell>
        <mxCell id="LTguTdRPaYYCilJlMKBC-9" value="Bolt megadása" style="edgeLabel;html=1;align=center;verticalAlign=middle;resizable=0;points=[];" vertex="1" connectable="0" parent="LTguTdRPaYYCilJlMKBC-7">
          <mxGeometry x="-0.1492" y="-3" relative="1" as="geometry">
            <mxPoint x="6" y="-13" as="offset" />
          </mxGeometry>
        </mxCell>
        <mxCell id="LTguTdRPaYYCilJlMKBC-8" style="rounded=0;orthogonalLoop=1;jettySize=auto;html=1;elbow=horizontal;" edge="1" parent="1" target="aM9ryv3xv72pqoxQDRHE-2">
          <mxGeometry relative="1" as="geometry">
            <mxPoint x="-70" y="189.5" as="sourcePoint" />
            <mxPoint x="79.5" y="189.5" as="targetPoint" />
          </mxGeometry>
        </mxCell>
        <mxCell id="LTguTdRPaYYCilJlMKBC-10" value="Vásárlás dátumának&lt;br&gt;megadása" style="edgeLabel;html=1;align=center;verticalAlign=middle;resizable=0;points=[];" vertex="1" connectable="0" parent="LTguTdRPaYYCilJlMKBC-8">
          <mxGeometry x="-0.1759" y="-2" relative="1" as="geometry">
            <mxPoint x="8" y="-22" as="offset" />
          </mxGeometry>
        </mxCell>
        <mxCell id="LTguTdRPaYYCilJlMKBC-11" style="edgeStyle=elbowEdgeStyle;rounded=0;orthogonalLoop=1;jettySize=auto;html=1;elbow=vertical;curved=0;" edge="1" parent="1" target="aM9ryv3xv72pqoxQDRHE-2">
          <mxGeometry relative="1" as="geometry">
            <mxPoint x="-70" y="230" as="sourcePoint" />
            <mxPoint x="79.5" y="230" as="targetPoint" />
          </mxGeometry>
        </mxCell>
        <mxCell id="LTguTdRPaYYCilJlMKBC-12" value="Kép feltöltése" style="edgeLabel;html=1;align=center;verticalAlign=middle;resizable=0;points=[];" vertex="1" connectable="0" parent="LTguTdRPaYYCilJlMKBC-11">
          <mxGeometry x="0.212" y="3" relative="1" as="geometry">
            <mxPoint x="-21" y="-12" as="offset" />
          </mxGeometry>
        </mxCell>
        <mxCell id="LTguTdRPaYYCilJlMKBC-20" style="edgeStyle=elbowEdgeStyle;rounded=0;orthogonalLoop=1;jettySize=auto;html=1;elbow=vertical;curved=0;" edge="1" parent="1" target="aM9ryv3xv72pqoxQDRHE-2">
          <mxGeometry relative="1" as="geometry">
            <mxPoint x="-70" y="410" as="sourcePoint" />
            <mxPoint x="79.5" y="410" as="targetPoint" />
          </mxGeometry>
        </mxCell>
        <mxCell id="LTguTdRPaYYCilJlMKBC-21" value="Beolvasott adatok&lt;br&gt;módosítása" style="edgeLabel;html=1;align=center;verticalAlign=middle;resizable=0;points=[];" vertex="1" connectable="0" parent="LTguTdRPaYYCilJlMKBC-20">
          <mxGeometry x="0.2067" y="2" relative="1" as="geometry">
            <mxPoint x="-20" y="-18" as="offset" />
          </mxGeometry>
        </mxCell>
        <mxCell id="LTguTdRPaYYCilJlMKBC-22" style="rounded=0;orthogonalLoop=1;jettySize=auto;html=1;elbow=vertical;" edge="1" parent="1">
          <mxGeometry relative="1" as="geometry">
            <mxPoint x="-70" y="450" as="sourcePoint" />
            <mxPoint x="75" y="450" as="targetPoint" />
          </mxGeometry>
        </mxCell>
        <mxCell id="LTguTdRPaYYCilJlMKBC-23" value="Új termék hozzáadása" style="edgeLabel;html=1;align=center;verticalAlign=middle;resizable=0;points=[];" vertex="1" connectable="0" parent="LTguTdRPaYYCilJlMKBC-22">
          <mxGeometry x="-0.1679" y="-2" relative="1" as="geometry">
            <mxPoint x="14" y="-12" as="offset" />
          </mxGeometry>
        </mxCell>
        <mxCell id="LTguTdRPaYYCilJlMKBC-24" style="rounded=0;orthogonalLoop=1;jettySize=auto;html=1;elbow=horizontal;" edge="1" parent="1" target="aM9ryv3xv72pqoxQDRHE-2">
          <mxGeometry relative="1" as="geometry">
            <mxPoint x="-70" y="500" as="sourcePoint" />
            <mxPoint x="60" y="500" as="targetPoint" />
          </mxGeometry>
        </mxCell>
        <mxCell id="LTguTdRPaYYCilJlMKBC-25" value="Résztvevők/csoportok&lt;br&gt;hozzáadása" style="edgeLabel;html=1;align=center;verticalAlign=middle;resizable=0;points=[];" vertex="1" connectable="0" parent="LTguTdRPaYYCilJlMKBC-24">
          <mxGeometry x="-0.1411" y="4" relative="1" as="geometry">
            <mxPoint x="6" y="-16" as="offset" />
          </mxGeometry>
        </mxCell>
        <mxCell id="LTguTdRPaYYCilJlMKBC-36" style="edgeStyle=elbowEdgeStyle;rounded=0;orthogonalLoop=1;jettySize=auto;html=1;elbow=vertical;curved=0;" edge="1" parent="1">
          <mxGeometry relative="1" as="geometry">
            <mxPoint x="-70" y="620" as="sourcePoint" />
            <mxPoint x="75" y="620" as="targetPoint" />
          </mxGeometry>
        </mxCell>
        <mxCell id="LTguTdRPaYYCilJlMKBC-37" value="Mentés" style="edgeLabel;html=1;align=center;verticalAlign=middle;resizable=0;points=[];" vertex="1" connectable="0" parent="LTguTdRPaYYCilJlMKBC-36">
          <mxGeometry x="0.3379" y="2" relative="1" as="geometry">
            <mxPoint x="-27" y="-8" as="offset" />
          </mxGeometry>
        </mxCell>
        <mxCell id="LTguTdRPaYYCilJlMKBC-4" value="" style="html=1;points=[];perimeter=orthogonalPerimeter;outlineConnect=0;targetShapes=umlLifeline;portConstraint=eastwest;newEdgeStyle={&quot;edgeStyle&quot;:&quot;elbowEdgeStyle&quot;,&quot;elbow&quot;:&quot;vertical&quot;,&quot;curved&quot;:0,&quot;rounded&quot;:0};" vertex="1" parent="1">
          <mxGeometry x="-80" y="130" width="10" height="550" as="geometry" />
        </mxCell>
        <mxCell id="LTguTdRPaYYCilJlMKBC-13" style="edgeStyle=elbowEdgeStyle;rounded=0;orthogonalLoop=1;jettySize=auto;html=1;elbow=vertical;curved=0;" edge="1" parent="1">
          <mxGeometry relative="1" as="geometry">
            <mxPoint x="85" y="250" as="sourcePoint" />
            <mxPoint x="265" y="250" as="targetPoint" />
          </mxGeometry>
        </mxCell>
        <mxCell id="LTguTdRPaYYCilJlMKBC-14" value="Fájlformátum ellenőrzése" style="edgeLabel;html=1;align=center;verticalAlign=middle;resizable=0;points=[];" vertex="1" connectable="0" parent="LTguTdRPaYYCilJlMKBC-13">
          <mxGeometry x="-0.1395" y="4" relative="1" as="geometry">
            <mxPoint x="15" y="-6" as="offset" />
          </mxGeometry>
        </mxCell>
        <mxCell id="LTguTdRPaYYCilJlMKBC-15" style="edgeStyle=elbowEdgeStyle;rounded=0;orthogonalLoop=1;jettySize=auto;html=1;elbow=vertical;curved=0;" edge="1" parent="1">
          <mxGeometry relative="1" as="geometry">
            <mxPoint x="85" y="320" as="sourcePoint" />
            <mxPoint x="265" y="320" as="targetPoint" />
          </mxGeometry>
        </mxCell>
        <mxCell id="LTguTdRPaYYCilJlMKBC-16" value="Kép tartalma" style="edgeLabel;html=1;align=center;verticalAlign=middle;resizable=0;points=[];" vertex="1" connectable="0" parent="LTguTdRPaYYCilJlMKBC-15">
          <mxGeometry x="-0.1933" y="2" relative="1" as="geometry">
            <mxPoint x="12" y="-8" as="offset" />
          </mxGeometry>
        </mxCell>
        <mxCell id="LTguTdRPaYYCilJlMKBC-17" value="Szöveggé alakítás" style="html=1;verticalAlign=bottom;endArrow=open;dashed=1;endSize=8;edgeStyle=elbowEdgeStyle;elbow=vertical;curved=0;rounded=0;" edge="1" parent="1">
          <mxGeometry relative="1" as="geometry">
            <mxPoint x="85" y="360" as="targetPoint" />
            <Array as="points">
              <mxPoint x="200" y="360" />
            </Array>
            <mxPoint x="265" y="360" as="sourcePoint" />
            <mxPoint as="offset" />
          </mxGeometry>
        </mxCell>
        <mxCell id="LTguTdRPaYYCilJlMKBC-18" style="edgeStyle=elbowEdgeStyle;rounded=0;orthogonalLoop=1;jettySize=auto;html=1;elbow=vertical;curved=0;dashed=1;endArrow=open;endFill=0;endSize=8;" edge="1" parent="1">
          <mxGeometry relative="1" as="geometry">
            <mxPoint x="75" y="360" as="sourcePoint" />
            <mxPoint x="-70" y="360" as="targetPoint" />
          </mxGeometry>
        </mxCell>
        <mxCell id="LTguTdRPaYYCilJlMKBC-19" value="Táblázatba írás" style="edgeLabel;html=1;align=center;verticalAlign=middle;resizable=0;points=[];" vertex="1" connectable="0" parent="LTguTdRPaYYCilJlMKBC-18">
          <mxGeometry x="0.371" y="-2" relative="1" as="geometry">
            <mxPoint x="24" y="-8" as="offset" />
          </mxGeometry>
        </mxCell>
        <mxCell id="LTguTdRPaYYCilJlMKBC-26" value="NyugtaService" style="shape=umlLifeline;perimeter=lifelinePerimeter;whiteSpace=wrap;html=1;container=0;dropTarget=0;collapsible=0;recursiveResize=0;outlineConnect=0;portConstraint=eastwest;newEdgeStyle={&quot;edgeStyle&quot;:&quot;elbowEdgeStyle&quot;,&quot;elbow&quot;:&quot;vertical&quot;,&quot;curved&quot;:0,&quot;rounded&quot;:0};" vertex="1" parent="1">
          <mxGeometry x="390" y="60" width="100" height="650" as="geometry" />
        </mxCell>
        <mxCell id="LTguTdRPaYYCilJlMKBC-27" value="" style="html=1;points=[];perimeter=orthogonalPerimeter;outlineConnect=0;targetShapes=umlLifeline;portConstraint=eastwest;newEdgeStyle={&quot;edgeStyle&quot;:&quot;elbowEdgeStyle&quot;,&quot;elbow&quot;:&quot;vertical&quot;,&quot;curved&quot;:0,&quot;rounded&quot;:0};" vertex="1" parent="LTguTdRPaYYCilJlMKBC-26">
          <mxGeometry x="45" y="450" width="10" height="50" as="geometry" />
        </mxCell>
        <mxCell id="LTguTdRPaYYCilJlMKBC-30" style="edgeStyle=elbowEdgeStyle;rounded=0;orthogonalLoop=1;jettySize=auto;html=1;elbow=vertical;curved=0;" edge="1" parent="1">
          <mxGeometry relative="1" as="geometry">
            <mxPoint x="85" y="510" as="sourcePoint" />
            <mxPoint x="435" y="510" as="targetPoint" />
          </mxGeometry>
        </mxCell>
        <mxCell id="LTguTdRPaYYCilJlMKBC-31" value="Nyugta adatai" style="edgeLabel;html=1;align=center;verticalAlign=middle;resizable=0;points=[];" vertex="1" connectable="0" parent="LTguTdRPaYYCilJlMKBC-30">
          <mxGeometry x="-0.2994" y="-1" relative="1" as="geometry">
            <mxPoint x="12" y="-11" as="offset" />
          </mxGeometry>
        </mxCell>
        <mxCell id="LTguTdRPaYYCilJlMKBC-32" style="edgeStyle=elbowEdgeStyle;rounded=0;orthogonalLoop=1;jettySize=auto;html=1;elbow=vertical;curved=0;endSize=8;endArrow=open;endFill=0;dashed=1;" edge="1" parent="1" target="aM9ryv3xv72pqoxQDRHE-2">
          <mxGeometry relative="1" as="geometry">
            <mxPoint x="440" y="560" as="sourcePoint" />
            <mxPoint x="90" y="560" as="targetPoint" />
          </mxGeometry>
        </mxCell>
        <mxCell id="LTguTdRPaYYCilJlMKBC-33" value="Fejenkénti végösszeg" style="edgeLabel;html=1;align=center;verticalAlign=middle;resizable=0;points=[];" vertex="1" connectable="0" parent="LTguTdRPaYYCilJlMKBC-32">
          <mxGeometry x="-0.1829" y="-1" relative="1" as="geometry">
            <mxPoint x="-82" y="-14" as="offset" />
          </mxGeometry>
        </mxCell>
        <mxCell id="LTguTdRPaYYCilJlMKBC-34" style="edgeStyle=elbowEdgeStyle;rounded=0;orthogonalLoop=1;jettySize=auto;html=1;elbow=vertical;curved=0;endArrow=open;endFill=0;endSize=8;dashed=1;" edge="1" parent="1">
          <mxGeometry relative="1" as="geometry">
            <mxPoint x="75" y="560" as="sourcePoint" />
            <mxPoint x="-70" y="560" as="targetPoint" />
          </mxGeometry>
        </mxCell>
        <mxCell id="LTguTdRPaYYCilJlMKBC-35" value="Végösszeg megjelenítése" style="edgeLabel;html=1;align=center;verticalAlign=middle;resizable=0;points=[];" vertex="1" connectable="0" parent="LTguTdRPaYYCilJlMKBC-34">
          <mxGeometry x="-0.4814" y="-2" relative="1" as="geometry">
            <mxPoint x="-37" y="-8" as="offset" />
          </mxGeometry>
        </mxCell>
        <mxCell id="LTguTdRPaYYCilJlMKBC-38" value="NyugtaDAO" style="shape=umlLifeline;perimeter=lifelinePerimeter;whiteSpace=wrap;html=1;container=0;dropTarget=0;collapsible=0;recursiveResize=0;outlineConnect=0;portConstraint=eastwest;newEdgeStyle={&quot;edgeStyle&quot;:&quot;elbowEdgeStyle&quot;,&quot;elbow&quot;:&quot;vertical&quot;,&quot;curved&quot;:0,&quot;rounded&quot;:0};" vertex="1" parent="1">
          <mxGeometry x="550" y="60" width="100" height="650" as="geometry" />
        </mxCell>
        <mxCell id="LTguTdRPaYYCilJlMKBC-39" value="" style="html=1;points=[];perimeter=orthogonalPerimeter;outlineConnect=0;targetShapes=umlLifeline;portConstraint=eastwest;newEdgeStyle={&quot;edgeStyle&quot;:&quot;elbowEdgeStyle&quot;,&quot;elbow&quot;:&quot;vertical&quot;,&quot;curved&quot;:0,&quot;rounded&quot;:0};" vertex="1" parent="LTguTdRPaYYCilJlMKBC-38">
          <mxGeometry x="45" y="570" width="10" height="40" as="geometry" />
        </mxCell>
        <mxCell id="LTguTdRPaYYCilJlMKBC-41" style="edgeStyle=elbowEdgeStyle;rounded=0;orthogonalLoop=1;jettySize=auto;html=1;elbow=vertical;curved=0;" edge="1" parent="1" target="LTguTdRPaYYCilJlMKBC-38">
          <mxGeometry relative="1" as="geometry">
            <mxPoint x="85" y="630" as="sourcePoint" />
            <mxPoint x="265" y="630" as="targetPoint" />
          </mxGeometry>
        </mxCell>
        <mxCell id="LTguTdRPaYYCilJlMKBC-43" value="Nyugta adatai" style="edgeLabel;html=1;align=center;verticalAlign=middle;resizable=0;points=[];" vertex="1" connectable="0" parent="LTguTdRPaYYCilJlMKBC-41">
          <mxGeometry x="0.26" y="2" relative="1" as="geometry">
            <mxPoint x="-39" y="-8" as="offset" />
          </mxGeometry>
        </mxCell>
        <mxCell id="LTguTdRPaYYCilJlMKBC-44" style="edgeStyle=elbowEdgeStyle;rounded=0;orthogonalLoop=1;jettySize=auto;html=1;elbow=vertical;curved=0;endArrow=open;endFill=0;dashed=1;" edge="1" parent="1">
          <mxGeometry relative="1" as="geometry">
            <mxPoint x="595" y="670" as="sourcePoint" />
            <mxPoint x="85" y="670" as="targetPoint" />
          </mxGeometry>
        </mxCell>
        <mxCell id="LTguTdRPaYYCilJlMKBC-45" value="Nyugta létrehozva" style="edgeLabel;html=1;align=center;verticalAlign=middle;resizable=0;points=[];" vertex="1" connectable="0" parent="LTguTdRPaYYCilJlMKBC-44">
          <mxGeometry x="0.0667" y="2" relative="1" as="geometry">
            <mxPoint x="47" y="-12" as="offset" />
          </mxGeometry>
        </mxCell>
        <mxCell id="LTguTdRPaYYCilJlMKBC-46" style="edgeStyle=elbowEdgeStyle;rounded=0;orthogonalLoop=1;jettySize=auto;html=1;elbow=horizontal;curved=0;dashed=1;endArrow=classic;endFill=0;" edge="1" parent="1">
          <mxGeometry relative="1" as="geometry">
            <mxPoint x="75" y="670" as="sourcePoint" />
            <mxPoint x="-70" y="670" as="targetPoint" />
          </mxGeometry>
        </mxCell>
        <mxCell id="LTguTdRPaYYCilJlMKBC-47" value="Sikeres mentés" style="edgeLabel;html=1;align=center;verticalAlign=middle;resizable=0;points=[];" vertex="1" connectable="0" parent="LTguTdRPaYYCilJlMKBC-46">
          <mxGeometry x="-0.2772" y="2" relative="1" as="geometry">
            <mxPoint x="-23" y="-12" as="offset" />
          </mxGeometry>
        </mxCell>
      </root>
    </mxGraphModel>
  </diagram>
</mxfile>
